<svg width="18" height="16" viewBox="0 0 18 16" fill="none" xmlns="http://www.w3.org/2000/svg">
<path fill-rule="evenodd" clip-rule="evenodd" d="M17.2812 5.25938C16.9252 4.85594 16.4131 4.62489 15.875 4.625H11.5V3.375C11.5 1.64911 10.1009 0.25 8.375 0.25C8.13818 0.24983 7.9216 0.383527 7.81563 0.595312L4.86406 6.5H1.5C0.809644 6.5 0.25 7.05964 0.25 7.75V14.625C0.25 15.3154 0.809644 15.875 1.5 15.875H14.9375C15.8827 15.8753 16.6803 15.1721 16.7984 14.2344L17.7359 6.73438C17.8032 6.20023 17.6375 5.66297 17.2812 5.25938ZM1.5 7.75H4.625V14.625H1.5V7.75ZM16.4953 6.57812L15.5578 14.0781C15.5184 14.3907 15.2526 14.6251 14.9375 14.625H5.875V7.27266L8.74297 1.53594C9.61946 1.71136 10.2502 2.48112 10.25 3.375V5.25C10.25 5.59518 10.5298 5.875 10.875 5.875H15.875C16.0544 5.87494 16.2252 5.95198 16.3439 6.08652C16.4626 6.22106 16.5177 6.40012 16.4953 6.57812Z" fill="#62522D"/>
</svg>
