<svg width="16" height="16" viewBox="0 0 16 16" fill="none" xmlns="http://www.w3.org/2000/svg">
<path fill-rule="evenodd" clip-rule="evenodd" d="M15.4883 7.04234L12.3172 9.80984L13.2671 13.9302C13.3699 14.3705 13.199 14.8296 12.8333 15.0956C12.4676 15.3616 11.9782 15.3828 11.5909 15.1494L7.99719 12.9697L4.41125 15.1494C4.02394 15.3828 3.53452 15.3616 3.16882 15.0956C2.80312 14.8296 2.63223 14.3705 2.735 13.9302L3.68352 9.81406L0.511719 7.04234C0.168718 6.74652 0.0365809 6.27384 0.176449 5.84303C0.316317 5.41222 0.700908 5.1073 1.15227 5.06938L5.33305 4.70727L6.965 0.814766C7.13926 0.397124 7.54746 0.12514 8 0.12514C8.45254 0.12514 8.86074 0.397124 9.035 0.814766L10.6719 4.70727L14.8512 5.06938C15.3026 5.1073 15.6872 5.41222 15.8271 5.84303C15.9669 6.27384 15.8348 6.74652 15.4918 7.04234H15.4883Z" fill="#C78F00"/>
</svg>
