<svg width="16" height="16" viewBox="0 0 16 16" fill="none" xmlns="http://www.w3.org/2000/svg">
<path fill-rule="evenodd" clip-rule="evenodd" d="M15.8188 5.8407C15.6795 5.41148 15.2972 5.107 14.8477 5.06727L10.6719 4.70727L9.035 0.814766C8.86074 0.397124 8.45254 0.12514 8 0.12514C7.54746 0.12514 7.13926 0.397124 6.965 0.814766L5.33305 4.70727L1.15227 5.06938C0.700908 5.1073 0.316317 5.41222 0.176449 5.84303C0.0365809 6.27384 0.168718 6.74652 0.511719 7.04234L3.68352 9.81406L2.73289 13.9302C2.63012 14.3705 2.80102 14.8296 3.16672 15.0956C3.53241 15.3616 4.02183 15.3828 4.40914 15.1494L7.99508 12.9697L11.5887 15.1494C11.9761 15.3828 12.4655 15.3616 12.8312 15.0956C13.1969 14.8296 13.3678 14.3705 13.265 13.9302L12.3151 9.80984L15.4862 7.04234C15.8292 6.74548 15.9603 6.27167 15.8188 5.8407ZM14.7486 6.19227L11.5775 8.95977C11.263 9.23335 11.1255 9.65843 11.2203 10.0644L12.173 14.1875L8.58219 12.0078C8.22504 11.7903 7.77637 11.7903 7.41922 12.0078L3.83328 14.1875L4.77969 10.0672C4.87447 9.66124 4.73702 9.23617 4.4225 8.96258L1.25 6.19648C1.24974 6.19438 1.24974 6.19226 1.25 6.19016L5.42938 5.82875C5.84523 5.7921 6.20659 5.52818 6.36805 5.1432L8 1.25563L9.63125 5.1432C9.79271 5.52818 10.1541 5.7921 10.5699 5.82875L14.75 6.19016C14.75 6.19016 14.75 6.19437 14.75 6.19508L14.7486 6.19227Z" fill="#C78F00"/>
</svg>
