<?xml version="1.0" encoding="utf-8"?>
<!-- Generator: Adobe Illustrator 25.0.1, SVG Export Plug-In . SVG Version: 6.00 Build 0)  -->
<svg version="1.1" id="Layer_1" xmlns="http://www.w3.org/2000/svg" xmlns:xlink="http://www.w3.org/1999/xlink" x="0px" y="0px"
	 viewBox="0 0 18 16" style="enable-background:new 0 0 18 16;" xml:space="preserve">
<style type="text/css">
	.st0{fill-rule:evenodd;clip-rule:evenodd;fill:#62522D;}
	.st1{fill:#62522D;}
</style>
<path class="st0" d="M17.7,9.3l-0.9-7.5c-0.1-0.9-0.9-1.6-1.9-1.6H1.5c-0.7,0-1.2,0.6-1.2,1.2v6.9c0,0.7,0.6,1.2,1.2,1.2h3.4l3,5.9
	c0.1,0.2,0.3,0.3,0.6,0.3c1.7,0,3.1-1.4,3.1-3.1v-1.2h4.4c0.5,0,1.1-0.2,1.4-0.6C17.6,10.3,17.8,9.8,17.7,9.3z M4.6,8.2H1.5V1.4h3.1
	V8.2z M16.3,9.9c-0.1,0.1-0.3,0.2-0.5,0.2h-5c-0.3,0-0.6,0.3-0.6,0.6v1.9c0,0.9-0.6,1.7-1.5,1.8L5.9,8.7V1.4h9.1
	c0.3,0,0.6,0.2,0.6,0.5l0.9,7.5C16.5,9.6,16.5,9.8,16.3,9.9z"/>
<path class="st1" d="M17,5.2c-0.2-1.2-0.3-2.9-1.2-3.8c-1-1-2.9-0.6-4.1-0.6c-1.7,0-3.4,0-5,0c-0.5,0-0.7,0.2-0.9,0.5
	c0,0.1-0.1,0.1-0.1,0.2C5.5,1.7,5.4,1.8,5.2,1.9C5.1,2,5,2.1,5,2.2C5,2.1,5,2,5,1.9c0-1.4-2-1.4-2.9-1.2C1.5,0.8,0.9,1,0.6,1.5
	c-0.3,0.6-0.2,1.4-0.3,2c0,1.3,0,2.9,0.7,4.1C1.6,8.7,2.9,9,4.1,9.1c0.5,0,1,0,1.4,0c0.3,0.8,0.6,1.6,1,2.3c0.5,0.9,0.8,2,1.3,2.9
	c0.2,0.3,0.7,0.6,1.1,0.5c0.8-0.3,1.4-0.8,1.7-1.6c0.2-0.4,0.2-0.8,0.2-1.2c0-0.2-0.1-0.4-0.1-0.6c0-0.1-0.1-0.2-0.1-0.3
	c0,0,0,0,0,0c0.2,0,0.5,0,0.8,0l1.6,0l3.3-0.1c0.5,0,1-0.4,1-1C17.4,8.3,17.3,6.8,17,5.2z"/>
</svg>
