<svg width="24" height="24" viewBox="0 0 24 24" fill="none" xmlns="http://www.w3.org/2000/svg">
<path fill-rule="evenodd" clip-rule="evenodd" d="M19.3547 6.59922C19.2359 6.45709 19.0602 6.37497 18.875 6.375H6.27187L5.88984 4.27656C5.78186 3.68219 5.26426 3.25009 4.66016 3.25H3.25C2.90482 3.25 2.625 3.52982 2.625 3.875C2.625 4.22018 2.90482 4.5 3.25 4.5H4.65625L6.65312 15.4602C6.71195 15.7852 6.8556 16.0889 7.06953 16.3406C6.24996 17.1061 6.14205 18.3674 6.81967 19.261C7.49729 20.1546 8.74093 20.391 9.69916 19.8084C10.6574 19.2257 11.0198 18.0128 10.5383 17H14.0867C13.9469 17.2927 13.8745 17.6131 13.875 17.9375C13.875 19.1456 14.8544 20.125 16.0625 20.125C17.2706 20.125 18.25 19.1456 18.25 17.9375C18.25 16.7294 17.2706 15.75 16.0625 15.75H8.49766C8.1956 15.75 7.9368 15.5339 7.88281 15.2367L7.63516 13.875H16.6977C17.6038 13.8749 18.3802 13.2267 18.5422 12.3352L19.4922 7.11172C19.5247 6.92894 19.4744 6.74115 19.3547 6.59922V6.59922ZM9.5 17.9375C9.5 18.4553 9.08027 18.875 8.5625 18.875C8.04473 18.875 7.625 18.4553 7.625 17.9375C7.625 17.4197 8.04473 17 8.5625 17C9.08027 17 9.5 17.4197 9.5 17.9375V17.9375ZM17 17.9375C17 18.4553 16.5803 18.875 16.0625 18.875C15.5447 18.875 15.125 18.4553 15.125 17.9375C15.125 17.4197 15.5447 17 16.0625 17C16.5803 17 17 17.4197 17 17.9375V17.9375ZM17.3125 12.1117C17.2584 12.4098 16.9982 12.6261 16.6953 12.625H7.40781L6.49922 7.625H18.1258L17.3125 12.1117Z" fill="#1C170D"/>
</svg>
