<svg width="24" height="24" viewBox="0 0 24 24" fill="none" xmlns="http://www.w3.org/2000/svg">
<path fill-rule="evenodd" clip-rule="evenodd" d="M21.5306 20.4694L16.8365 15.7762C19.6629 12.383 19.3204 7.36691 16.0591 4.38933C12.7978 1.41174 7.77132 1.52598 4.64865 4.64865C1.52598 7.77132 1.41174 12.7978 4.38933 16.0591C7.36691 19.3204 12.383 19.6629 15.7762 16.8365L20.4694 21.5306C20.7624 21.8237 21.2375 21.8237 21.5306 21.5306C21.8237 21.2375 21.8237 20.7624 21.5306 20.4694V20.4694ZM3.74998 10.5C3.74998 6.77206 6.77206 3.74998 10.5 3.74998C14.2279 3.74998 17.25 6.77206 17.25 10.5C17.25 14.2279 14.2279 17.25 10.5 17.25C6.77377 17.2458 3.75411 14.2262 3.74998 10.5V10.5Z" fill="#8C7D59"/>
</svg>
